HIERARCHY
ROOT hip
{
	OFFSET 0.000000 0.000000 0.000000 
	CHANNELS 6 Xposition Yposition Zposition Xrotation Zrotation Yrotation
	JOINT abdomen
	{
		OFFSET 0.000000 3.402643 0.000000 
		CHANNELS 3 Xrotation Zrotation Yrotation
		JOINT chest
		{
			OFFSET 0.000000 8.438565 -0.680529 
			CHANNELS 3 Xrotation Zrotation Yrotation
			JOINT neck
			{
				OFFSET 0.000000 10.207942 -0.272212 
				CHANNELS 3 Xrotation Zrotation Yrotation
				JOINT head
				{
					OFFSET 0.000000 3.130431 0.000000 
					CHANNELS 3 Xrotation Zrotation Yrotation
					End Site
					{
						OFFSET 0.000000 3.130435 0.000000 
					}
				}
			}
			JOINT lCollar
			{
				OFFSET 3.470700 6.669187 -0.816635 
				CHANNELS 3 Yrotation Zrotation Xrotation
				JOINT lShldr
				{
					OFFSET 3.198488 0.000000 0.000000 
					CHANNELS 3 Zrotation Yrotation Xrotation
					JOINT lForeArm
					{
						OFFSET 10.139888 0.000000 0.000000 
						CHANNELS 3 Yrotation Zrotation Xrotation
						JOINT lHand
						{
							OFFSET 8.370511 0.000000 0.000000 
							CHANNELS 3 Zrotation Yrotation Xrotation
							End Site
							{
								OFFSET 4.083176 0.000000 0.000000 
							}
						}
					}
				}
			}
			JOINT rCollar
			{
				OFFSET -3.470700 6.669187 -0.816635 
				CHANNELS 3 Yrotation Zrotation Xrotation
				JOINT rShldr
				{
					OFFSET -3.198488 0.000000 0.000000 
					CHANNELS 3 Zrotation Yrotation Xrotation
					JOINT rForeArm
					{
						OFFSET -10.139888 0.000000 0.000000 
						CHANNELS 3 Yrotation Zrotation Xrotation
						JOINT rHand
						{
							OFFSET -8.370511 0.000000 0.000000 
							CHANNELS 3 Zrotation Yrotation Xrotation
							End Site
							{
								OFFSET -4.083176 0.000000 0.000000 
							}
						}
					}
				}
			}
		}
	}
	JOINT lThigh
	{
		OFFSET 5.308129 -1.633274 1.361059 
		CHANNELS 3 Xrotation Zrotation Yrotation
		JOINT lShin
		{
			OFFSET -2.041588 -20.007561 0.000000 
			CHANNELS 3 Xrotation Zrotation Yrotation
			JOINT lFoot
			{
				OFFSET 0.000000 -19.190928 -1.224953 
				CHANNELS 3 Xrotation Yrotation Zrotation
				End Site
				{
					OFFSET 0.000000 -2.449906 4.627600 
				}
			}
		}
	}
	JOINT rThigh
	{
		OFFSET -5.308129 -1.633274 1.361059 
		CHANNELS 3 Xrotation Zrotation Yrotation
		JOINT rShin
		{
			OFFSET 2.041588 -20.007561 0.000000 
			CHANNELS 3 Xrotation Zrotation Yrotation
			JOINT rFoot
			{
				OFFSET 0.000000 -19.190928 -1.224953 
				CHANNELS 3 Xrotation Yrotation Zrotation
				End Site
				{
					OFFSET 0.000000 -2.449906 4.627600 
				}
			}
		}
	}
}
MOTION
Frames: 18
Frame Time: 0.033333
-2.257763 51.112022 3.298075 11.289063 11.201172 -32.908257 37.312618 2.245040 -7.794885 -21.962893 15.673829 4.414063 51.063168 8.107644 2.471410 -91.816406 -12.041014 8.056641 2.000000 -2.000000 0.000000 -63.154301 21.406250 19.482424 -131.709396 2.188928 -2.607906 4.382494 3.724208 -13.642786 -2.000000 2.000000 0.000000 89.238281 -33.261719 -29.091797 65.845345 1.289138 -2.532907 57.067711 36.252323 -118.914825 -5.271618 10.704507 15.791129 37.629776 -4.103601 -3.265497 23.631683 10.577060 -10.189776 -34.846802 -13.569832 -12.877522 22.837778 4.725637 2.082252 3.979125 -11.983542 7.939796 
-4.829076 52.246468 6.618542 10.556642 11.220704 -34.802788 37.163380 -1.651804 -5.278538 -22.236328 13.759767 5.168338 51.063168 8.107644 2.471410 -88.457031 -14.619139 1.228004 2.000000 -2.000000 0.000000 -63.935543 25.996096 19.926157 -131.904007 2.015708 -2.559063 3.121111 3.261534 -13.411233 -2.000000 2.000000 0.000000 82.949219 -22.343750 -16.445313 62.502426 1.370648 -2.420617 52.798870 39.998016 -121.169029 -11.948806 11.222444 18.375668 39.880234 -4.266254 -3.349585 20.894745 8.199841 -10.500761 -27.133076 -12.515356 -14.577639 17.722662 4.934215 1.481308 1.877495 -10.156718 7.352072 
-7.710025 53.105171 9.912416 9.833984 11.259767 -36.523438 36.686512 -5.426920 -2.886556 -22.685547 11.865234 5.890679 51.063168 8.107644 2.471410 -85.722656 -15.546873 -5.019531 2.000000 -2.000000 0.000000 -64.492188 30.449219 19.882813 -132.078644 2.047220 -2.521788 2.849365 3.114471 -13.190050 -2.000000 2.000000 0.000000 79.160156 -13.115233 -9.133073 61.446388 1.377563 -2.371323 49.280891 43.698677 -123.245857 -18.414179 12.231013 20.642061 41.329426 -4.218121 -3.416301 17.637110 6.298916 -10.266438 -18.231621 -11.141822 -15.972266 9.768792 5.123345 0.823672 1.723428 -8.879608 7.617723 
-10.618607 53.554226 12.871486 9.306641 11.103516 -38.416084 36.199268 -9.173617 -0.443227 -23.105469 10.136718 6.660156 51.063168 8.107644 2.471410 -84.628906 -15.058593 -9.777927 2.000000 -2.000000 0.000000 -65.400391 34.746094 18.857420 -132.424271 1.883875 -2.639059 3.091262 3.573968 -12.667298 -2.000000 2.000000 0.000000 75.673828 -6.865235 -3.887886 63.371929 1.302971 -2.434320 47.423599 47.213177 -124.736115 -24.216228 13.629619 22.419800 40.789997 -4.305704 -3.449516 13.425813 4.982037 -10.444730 -9.402696 -9.479262 -16.955706 1.151187 5.247140 0.079700 3.560843 -7.746711 7.471343 
-13.737515 53.302124 15.691635 8.945313 10.761720 -40.330204 35.558277 -12.601000 1.840752 -23.349609 8.574219 7.509767 51.063168 8.107644 2.471410 -84.599609 -14.296874 -12.890625 2.000000 -2.000000 0.000000 -67.373047 39.208984 16.895861 -132.767136 2.076921 -2.347507 4.284600 3.948474 -12.601878 -2.000000 2.000000 0.000000 71.962891 -2.607422 -0.078569 66.362511 1.190514 -2.519070 45.914436 50.750164 -126.301826 -29.215109 15.571286 24.901197 36.907425 -4.275834 -3.212250 6.779724 3.574798 -10.719238 -0.440809 -7.100173 -16.967884 -8.274091 4.827071 -1.006027 4.863102 -6.979073 7.862978 
-16.791300 52.419781 18.401510 8.906251 10.234375 -41.990456 34.813145 -15.401364 3.769279 -23.564455 7.353516 8.222655 51.063168 8.107644 2.471410 -85.458984 -13.300779 -15.068358 2.000000 -2.000000 0.000000 -70.537109 43.134769 13.212890 -133.291763 2.228263 -2.268326 5.447116 4.490332 -11.763193 -2.000000 2.000000 0.000000 67.968750 1.123047 2.373047 69.863548 0.868662 -2.704119 44.766766 54.379021 -127.763718 -33.534431 18.133650 27.073717 30.727310 -4.484523 -2.753168 -1.929906 1.757831 -11.462160 7.194204 -5.047220 -17.822041 -14.798477 4.702319 -1.077709 4.804568 -6.239248 7.992728 
-19.315908 51.781654 20.720833 9.765625 8.828126 -43.836391 34.385105 -17.635839 5.049318 -23.408203 6.650391 8.876953 51.063168 8.107644 2.471410 -86.201172 -11.904296 -16.562500 2.000000 -2.000000 0.000000 -76.347656 46.044918 6.601562 -133.656326 2.085535 -2.367567 5.765550 4.843442 -11.479326 -2.000000 2.000000 0.000000 64.716797 5.205079 2.597656 73.029343 0.735564 -2.770487 42.673100 57.603546 -130.022018 -37.607662 20.664753 28.008133 24.410881 -4.773733 -2.288678 -9.123585 0.697559 -12.802939 10.695681 -4.207765 -17.642849 -12.510911 5.276781 -0.928037 2.821760 -5.187715 6.315527 
-21.598782 50.639339 23.758997 11.308593 6.875000 -45.898441 34.096375 -19.166126 5.733227 -23.056643 6.630859 9.443359 51.063168 8.107644 2.471410 -87.353516 -8.955077 -17.773438 2.000000 -2.000000 0.000000 -85.019531 46.191406 -3.928499 -133.819901 2.226560 -2.297563 4.979996 4.810525 -11.677098 -2.000000 2.000000 0.000000 60.439449 11.181642 -2.685547 76.714981 0.391646 -2.575191 39.566463 60.508808 -133.589508 -40.660408 22.621323 26.821329 20.149979 -4.922912 -1.953132 -12.713092 0.315427 -13.556937 15.325931 -1.670426 -17.297018 -14.270970 5.290748 -1.080332 2.476109 -3.985661 4.752372 
-23.872862 49.292179 26.807571 12.861328 5.126953 -47.684669 33.880287 -20.297375 6.043011 -22.333986 7.128906 10.292970 51.063168 8.107644 2.471410 -88.789063 -5.351562 -18.730469 2.000000 -2.000000 0.000000 -94.228516 43.798828 -14.511721 -134.010406 2.031688 -2.452433 3.631913 4.727678 -11.791917 -2.000000 2.000000 0.000000 51.093750 17.529297 -15.703124 80.055977 0.258265 -2.974102 35.021168 63.334915 -138.522675 -43.871574 22.815950 22.040556 18.756542 -4.973117 -1.844909 -9.827810 1.764535 -12.860418 19.943737 0.281155 -17.401636 -14.272267 5.288385 -1.070206 1.755410 -2.267807 3.375233 
-26.142427 48.756474 29.865055 13.740235 4.267578 -48.524662 33.810558 -20.977953 5.810287 -21.230469 7.968750 11.085339 51.063168 8.107644 2.471410 -90.078125 -3.447265 -18.886721 2.000000 -2.000000 0.000000 -99.218750 40.957027 -19.319771 -134.010941 2.030555 -2.471924 2.768580 4.706114 -11.788869 -2.000000 2.000000 0.000000 39.345699 19.902346 -28.476561 83.010551 -0.394219 -2.855394 30.511896 65.201988 -143.010117 -46.784935 22.107693 14.364218 19.309839 -4.944620 -1.857693 -3.261795 4.158010 -11.715397 23.044165 0.370404 -18.048410 -14.253488 5.281512 -1.077320 8.413425 1.512636 0.724190 
-28.411415 47.905640 32.929722 13.574219 4.589844 -48.270706 34.049820 -21.398754 5.044409 -20.302734 8.984375 11.730040 51.063168 8.107644 2.471410 -90.644531 -4.736328 -17.744141 2.000000 -2.000000 0.000000 -100.175781 40.214848 -16.386719 -133.834869 2.040870 -2.462747 3.544393 4.805562 -11.239877 -2.000000 2.000000 0.000000 38.271484 19.589844 -29.511717 84.249741 -0.269739 -2.809081 26.776272 66.435127 -146.917740 -48.103474 20.741102 6.924264 20.337954 -4.892589 -1.963650 4.986371 6.093363 -11.590426 25.349007 -1.133774 -19.116440 -11.607440 5.317848 -0.845711 12.832977 3.978046 -1.887683 
-30.683641 46.968140 35.999821 12.890625 5.654297 -47.226563 34.276787 -21.354500 4.186073 -19.355469 10.146485 12.277110 51.063168 8.107644 2.471410 -90.810547 -7.353515 -16.162109 2.000000 -2.000000 0.000000 -97.558594 40.400391 -8.128436 -133.482529 2.032821 -2.432942 5.136268 4.567051 -10.631577 -2.000000 2.000000 0.000000 41.357426 14.716797 -26.940882 83.397453 0.114578 -2.689048 26.018749 66.355690 -147.677383 -47.544964 19.363512 1.566401 19.839050 -4.921446 -1.907551 11.979703 6.446635 -9.998240 28.048988 -2.950444 -20.561523 -11.095833 5.327952 -0.793718 20.699406 5.165164 -4.278628 
-33.226307 47.495972 38.583324 12.031250 6.875000 -45.643360 34.731575 -20.989218 3.057894 -18.583984 11.152345 12.607423 51.063168 8.107644 2.471410 -90.859375 -9.873046 -14.179688 2.000000 -2.000000 0.000000 -91.728516 39.824219 0.810547 -133.292572 2.216811 -2.296994 6.212654 4.679770 -10.138471 -2.000000 2.000000 0.000000 52.148438 6.923828 -14.443358 80.412056 0.452271 -2.777095 28.447468 65.355591 -145.291946 -44.523060 17.301500 0.810533 23.357658 -4.779917 -2.377806 7.827917 6.648483 -12.211968 32.021095 -3.692105 -22.101336 -14.253917 5.307703 -1.090843 30.252579 5.691102 -7.527938 
-36.162403 49.591541 41.410419 11.503906 7.568360 -44.520195 35.113205 -20.484177 2.068584 -18.359375 12.001953 12.462969 51.063168 8.107644 2.471410 -90.439453 -11.123047 -11.994072 2.000000 -2.000000 0.000000 -81.982422 37.949219 9.537255 -132.957321 1.892367 -2.493200 6.410364 4.036332 -10.511319 -2.000000 2.000000 0.000000 60.839840 -5.078125 -0.947266 77.246826 0.605998 -2.729090 30.306803 63.915928 -143.255142 -37.152096 16.012934 2.311020 18.253374 -5.040883 -1.803476 8.461566 5.724687 -12.504530 21.948843 -5.801503 -23.998835 -1.225909 5.361257 -0.083289 36.040840 4.495164 -8.133779 
-38.938000 51.545311 44.431919 11.660156 6.865235 -43.758595 36.145622 -18.450073 0.112118 -19.775391 12.431641 10.998197 51.063168 8.107644 2.471410 -88.310547 -9.189452 -7.470702 2.000000 -2.000000 0.000000 -72.871094 35.703125 16.982420 -132.764694 2.217947 -2.277503 5.626884 3.446256 -10.747538 -2.000000 2.000000 0.000000 63.183594 -14.824219 7.106878 74.794479 0.730476 -2.682652 32.788773 62.836147 -140.472885 -27.728392 15.826194 4.557919 9.781246 -5.215285 -1.035225 10.789172 4.598761 -12.648010 5.692710 -8.496189 -25.355656 18.839184 4.388185 1.669009 36.771523 3.485217 -1.255724 
-41.157700 52.474926 47.233910 12.343750 5.664063 -43.045910 37.775425 -14.922042 -2.715761 -22.275391 12.890625 8.212891 51.063168 8.107644 2.471410 -84.384766 -5.800781 -0.214844 2.000000 -2.000000 0.000000 -66.298828 34.580078 20.781250 -132.764694 2.217947 -2.277503 4.949889 2.730302 -10.961301 -2.000000 2.000000 0.000000 64.160156 -20.048828 11.367186 73.035522 0.815956 -2.638580 33.600025 61.754539 -139.262070 -23.330139 16.582151 6.029334 10.137494 -5.162573 -1.110544 7.915821 3.947148 -12.591166 -11.562449 -11.816114 -24.928532 38.324825 3.935109 3.199130 32.291321 1.516469 9.757052 
-43.526199 52.561588 50.189213 12.519532 4.804688 -41.639805 38.802200 -11.439676 -5.374802 -23.525391 13.125000 6.025392 51.063168 8.107644 2.471410 -81.894531 -3.457031 6.522848 2.000000 -2.000000 0.000000 -61.279297 32.949219 22.515076 -132.588654 2.218514 -2.267758 4.107244 1.789658 -11.467536 -2.000000 2.000000 0.000000 66.787109 -24.414061 12.290887 71.462654 0.883069 -2.615131 34.619297 60.861492 -137.856857 -20.759054 16.823502 7.195759 15.071702 -5.060244 -1.530980 0.712465 2.891347 -11.840021 -25.190760 -14.271136 -24.366983 50.276474 3.134350 3.903004 27.344603 -0.832750 18.356443 
-46.171383 52.348873 53.317406 11.621094 4.970704 -39.042118 39.474377 -8.222711 -8.183442 -23.164064 13.281250 4.531250 51.063168 8.107644 2.471410 -82.666016 -2.617187 11.914063 2.000000 -2.000000 0.000000 -58.867188 30.898438 21.294079 -132.764694 2.217947 -2.277503 1.773828 -0.412457 -11.719673 -2.000000 2.000000 0.000000 70.781250 -28.476561 9.087142 70.231316 0.939866 -2.582501 36.530239 59.752140 -135.320465 -17.441048 16.122581 8.090014 17.892612 -5.060810 -1.785797 -4.619111 0.993813 -11.400703 -33.374466 -15.629657 -24.719444 50.452625 3.124605 3.922097 20.158550 -4.145354 21.668888 
